<svg width="77" height="30" xmlns="http://www.w3.org/2000/svg"><defs><linearGradient x1="9.424%" y1="22.81%" x2="91.602%" y2="70.944%" id="a"><stop stop-color="#FFA400" offset="0%"/><stop stop-color="#FFCF39" offset="100%"/></linearGradient></defs><g fill="none" fill-rule="evenodd"><path d="M73.663 29.32H1.955C.875 29.32 0 28.787 0 27.708V1.955C0 .874.876 0 1.955 0H74.29c1.08 0 1.955.874 1.955 1.955v25.752c0 1.08-.876 1.614-1.955 1.614" fill="#3773FF"/><path d="M38.705 22.24c-1.18-.018-2.14-.95-2.14-2.079V3.894h-3.137V20.16c0 2.786 2.366 5.109 5.271 5.109h4.981v-3.03h-4.975z" fill="#FFF"/><path fill="#FFF" d="M38.64 19.05h3.156V3.892H38.64zm-10.31.287c0 1.003-.488 1.936-1.343 2.563l-.072.051v3.322l.233-.08c2.607-.915 4.361-3.267 4.361-5.856V5.694H28.33v13.643zM48.228 21.9c-.855-.626-1.343-1.56-1.343-2.563V5.693h-3.18v13.644c0 2.59 1.754 4.944 4.362 5.857l.231.08V21.95l-.07-.05zm1.995-2.85h2.326V7.078h4.857v11.97h2.338V4.38h-9.521zM64.234 5.37V3.894h-3.501v4.543h7.796v11.725c0 1.13-.93 2.062-2.076 2.08h-2.819v3.03h2.823c2.837-.03 5.144-2.323 5.144-5.11V5.37h-7.367z"/><path d="M56.422 18.774V8.064h-2.884v10.71c0 1.807-1.41 3.277-3.145 3.277h-.176v3.153h.176c1.777 0 3.437-.8 4.588-2.205 1.152 1.406 2.812 2.205 4.587 2.205h.176v-3.153h-.176c-1.734 0-3.146-1.47-3.146-3.277m11.369.31v-2.487h-2.75v1.87h-1.905l2.608-9.354h-2.881l-2.454 8.884a2.475 2.475 0 00.205 1.974c.348.612.94 1.04 1.668 1.208.104.026.225.037.362.037h3.012a2.136 2.136 0 002.135-2.132M16.047 4.797v-.905h-3.498v.905H3.613v4.286h3.5V7.87h14.37v1.213h3.5V4.797zM10.42 16.313v-3.057h7.756v3.057l-3.879 2.002-3.877-2.002zm8.256 4.262l-.917-.475 3.621-1.867v-4.977h3.603V10.16H3.613v3.095h3.601v4.977l3.623 1.867-.917.475a13.83 13.83 0 01-6.31 1.531v3.167c2.7 0 5.397-.655 7.794-1.89l2.893-1.494 2.895 1.494a17.076 17.076 0 007.795 1.89v-3.167a13.83 13.83 0 01-6.31-1.53z" fill="#FFF"/><path d="M.218.168v8.065l7.08 3.656 7.082-3.656V.168H.218zM3.42 6.313v-3.01h7.756v3.01L7.297 8.315 3.42 6.313z" transform="translate(7 10)" fill="url(#a)"/></g></svg>