<svg width="13" height="13" xmlns="http://www.w3.org/2000/svg"><path d="M5.694 11.018L1.573 6.934l.735-.747 1.313 1.3c.051-.117.09-.228.116-.338.066-.286.143-.67.143-1.196v-2.71h5.318V4.25H4.88v1.722c0 .65-.045 1.177-.143 1.574a4.37 4.37 0 01-.266.792L5.68 9.535l7.306-7.378V.793C10.023.006 6.526 0 6.493 0 6.462 0 2.965.006 0 .8v5.694c.006.071.098 1.189.91 2.521a8.027 8.027 0 001.95 2.152c.994.774 2.217 1.385 3.634 1.82 1.41-.435 2.632-1.046 3.627-1.813a8.003 8.003 0 001.95-2.146c.819-1.332.916-2.463.922-2.541V3.64l-7.299 7.377z" fill="#FF6000"/></svg>