<svg width="43" height="43" xmlns="http://www.w3.org/2000/svg" xmlns:xlink="http://www.w3.org/1999/xlink"><defs><path d="M42.426 0v42.426L0 0h42.426z" id="a"/><path d="M42.426 0v42.426L0 0h42.426z" id="b"/><linearGradient x1="50%" y1="50%" x2="103.344%" y2="0%" id="c"><stop stop-color="#FCFCFC" offset="0%"/><stop stop-color="#E6E6E6" offset="100%"/></linearGradient></defs><g fill="none" fill-rule="evenodd"><use fill="#EFEFEF" xlink:href="#a"/><mask id="d" fill="#fff"><use xlink:href="#b"/></mask><use fill="url(#c)" xlink:href="#b"/><g opacity=".62" mask="url(#d)" fill="#BCBCBC" fill-rule="nonzero"><path d="M29.78 7.083c-.087.011-.178.004-.266.004-1.447 0-2.895-.004-4.342.003a3.86 3.86 0 00-1.234.185c-.708.235-1.135.706-1.31 1.39-.065.253-.091.51-.091.77 0 2.432-.004 4.86.003 7.29 0 .5.035 1 .237 1.477.262.619.75.984 1.42 1.147.24.058.488.08.735.08h8.303c.316 0 .632-.026.944-.084.93-.162 1.54-.749 1.71-1.628.016-.08-.015-.188.111-.224V9.099c-.015-.015-.019-.033-.019-.055-.057-.173-.065-.354-.126-.532-.27-.76-.826-1.208-1.63-1.403a2.684 2.684 0 00-.742-.076c-.05.003-.115.036-.149-.033h-3.39c-.015.094-.102.076-.163.083zm3.76 1.473c.152 0 .308.032.453.076.263.08.407.275.407.546 0 2.707.004 5.413-.003 8.12 0 .405-.328.65-.804.654-1.455.011-2.906.004-4.36.004h-4.305a1.55 1.55 0 01-.483-.098c-.324-.112-.366-.38-.37-.647-.007-1.357-.003-2.714-.003-4.07V9.322c0-.235.057-.452.262-.615.176-.138.393-.156.594-.156 2.872-.003 5.744 0 8.612.004z"/><path d="M29.964 7.04c-1.454.003-2.908.003-4.358.003-.346 0-.685.036-1.02.112-.427.097-.813.277-1.104.6-.39.436-.545.97-.545 1.534a1346.44 1346.44 0 000 7.52c0 .328.026.659.103.979.103.421.28.81.615 1.098.43.37.953.54 1.528.54 2.727.003 5.458.003 8.185 0 .343 0 .689-.018 1.02-.108.7-.194 1.237-.572 1.472-1.289.063-.19.066-.392.14-.58-.118.037-.092.145-.107.224-.165.878-.754 1.458-1.652 1.62a5.186 5.186 0 01-.913.082h-8.024c-.24 0-.479-.021-.71-.079-.645-.162-1.12-.525-1.373-1.14-.195-.472-.228-.973-.228-1.47-.008-2.418-.004-4.834-.004-7.253 0-.259.026-.514.088-.766.17-.68.582-1.149 1.266-1.383.387-.133.788-.18 1.193-.183 1.399-.007 2.797-.004 4.196-.004.084 0 .173.007.257-.003.063-.008.144.007.155-.087-.044.076-.118.033-.18.033zM7.092 17.49c.074.45.202.878.526 1.223.424.457.976.648 1.583.652 2.764.01 5.528.01 8.296 0 .346 0 .696-.036 1.035-.14.901-.278 1.439-.983 1.439-1.912 0-2.664 0-5.324.003-7.988 0-.23-.03-.453-.088-.676a2.088 2.088 0 00-1.748-1.523 3.208 3.208 0 00-.457-.04c-.073 0-.165.022-.191-.086h-3.276c-.048.076-.121.032-.18.032-1.513.004-3.026-.007-4.539.008-.544.003-1.074.093-1.553.385-.46.28-.729.687-.872 1.188-.03.097-.007.205-.07.295v8.387c.107.032.081.126.092.194zm1.454-8.316c0-.291.228-.525.534-.587.162-.032.323-.036.485-.036h8.061c.158 0 .31.03.456.072.277.087.398.249.398.526v8.117c0 .295-.14.479-.427.572a1.391 1.391 0 01-.456.072c-1.37-.003-2.735-.003-4.104-.003-1.388 0-2.772.003-4.16-.004-.231 0-.463-.032-.636-.22a.521.521 0 01-.151-.363c-.004-2.71-.004-5.428 0-8.146z"/><path d="M7.034 17.526c.004.325.1.632.244.917.395.781 1.099 1.132 1.962 1.139 2.833.022 5.665.007 8.494.007.354 0 .708-.029 1.054-.11 1.03-.244 1.658-.963 1.665-1.986.02-2.694.008-5.389.008-8.083 0-.18 0-.358-.034-.537-.114-.591-.407-1.073-.92-1.424-.419-.285-.894-.402-1.404-.416-.087-.004-.186.044-.262-.033.027.11.125.088.198.088.16 0 .315.022.471.04.875.117 1.586.726 1.806 1.544.061.227.092.453.092.687-.004 2.702 0 5.4-.004 8.102 0 .938-.555 1.654-1.487 1.938-.35.106-.711.143-1.068.143-2.856.007-5.712.01-8.571 0-.628-.004-1.194-.197-1.635-.661-.335-.354-.468-.785-.544-1.242-.012-.069.015-.167-.099-.19.05.004.034.048.034.077zm2.768 17.35c.08-.01.164-.003.248-.003h7.833c.32 0 .631-.037.939-.113.97-.241 1.574-.982 1.578-1.943.004-.923 0-1.85 0-2.774v-5.404c0-1.18-.814-2.052-2.038-2.18-.434-.044-.87-.062-1.308-.073-1.312-.026-2.624.018-3.932.047-1.255.03-2.51.008-3.76.026a2.8 2.8 0 00-1.244.296 1.832 1.832 0 00-.977 1.22c-.027.102-.004.237-.141.291v8.544c.076.2.084.416.148.624.225.756.738 1.216 1.514 1.42.247.066.502.085.756.077.054 0 .126-.04.168.033h.076c.007-.084.08-.08.14-.087zm-.433-1.482c-.464 0-.787-.24-.783-.748.015-2.677.007-5.353.003-8.033 0-.43.267-.66.696-.675 2.837-.088 5.67-.018 8.507-.03.243 0 .51-.014.745.11.205.11.323.263.323.5-.004 1.37 0 2.739 0 4.108 0 1.358-.008 2.713.004 4.07.004.443-.297.644-.711.706-.327.047-.647 0-.97-.004-2.605-.007-5.21-.004-7.814-.004z"/><path d="M9.87 34.936a2779 2779 0 017.738 0c.357 0 .71-.008 1.065-.076.475-.09.904-.28 1.235-.614.369-.373.552-.84.552-1.35.007-2.667.003-5.339.003-8.006a2.44 2.44 0 00-.076-.665c-.201-.714-.657-1.21-1.395-1.482-.506-.187-1.038-.18-1.559-.19-.878-.019-1.757-.033-2.635.017-.722.043-1.452.011-2.178.036-1.05.033-2.103.011-3.156.007-.244 0-.483.022-.723.072-.7.151-1.235.496-1.543 1.124-.1.205-.107.43-.198.635.14-.053.114-.186.14-.287.145-.535.465-.94.978-1.199a2.851 2.851 0 011.243-.29c1.255-.019 2.506.003 3.76-.026 1.312-.029 2.62-.072 3.932-.047.437.008.874.026 1.308.072 1.224.126 2.034.984 2.038 2.144v5.313c0 .909.004 1.82 0 2.73-.008.947-.609 1.672-1.578 1.91-.308.075-.62.11-.94.11H10.05c-.083 0-.163-.003-.247.004-.06.007-.133 0-.14.086.057-.068.14-.028.209-.028zM7.943 7.434c.478-.292 1.008-.387 1.553-.39 1.514-.015 3.027-.004 4.54-.007.06 0 .133.043.18-.033-.062.036-.132.018-.198.018-1.65.01-3.3-.03-4.949.022-.696.022-1.285.296-1.712.861-.232.307-.335.657-.357 1.034.066-.088.044-.198.07-.3.147-.507.412-.92.873-1.205zm25.641-.397c.243-.011.483.018.718.076.774.197 1.315.65 1.576 1.417.06.175.067.361.122.536v-.014c.015-1.026-.899-1.942-1.94-2.02-.207-.014-.413.02-.62-.032.03.077.097.04.144.037zM9.342 34.935a2.48 2.48 0 01-.733-.077c-.751-.204-1.248-.664-1.465-1.42-.06-.208-.067-.423-.144-.624.04.194.03.394.077.588.203.832.94 1.482 1.79 1.533.213.015.427-.022.637.03-.04-.07-.11-.034-.162-.03z"/><path d="M24.884 27.117c-.456.007-.757.307-.757.74v6.352c0 .455.315.744.772.736.478-.007.779-.255.782-.728.008-2.123.004-4.249 0-6.371 0-.444-.311-.736-.797-.729zm9.386.007c-.368-.066-.865.182-.865.673-.007 1.08 0 2.156 0 3.236v3.217c0 .06-.003.126.015.181.123.348.534.6.872.518.423-.1.664-.266.668-.791.007-2.053.003-4.105.003-6.157-.003-.533-.17-.78-.693-.877zm-3.44 2.215c-.096-.347-.482-.62-.82-.558-.46.089-.719.244-.723.773-.01 1.52-.003 3.043-.003 4.563 0 .51.211.74.649.82.412.078.905-.166.909-.705v-4.734c0-.048 0-.107-.011-.159zm-1.027-6.748c-.323.07-.52.377-.52.732v3.269c0 .484.15.777.672.876.382.07.89-.192.887-.684-.004-.584 0-1.168 0-1.756 0-.566-.008-1.132 0-1.701.01-.703-.542-.843-1.039-.736zm-4.415.096c-.181-.126-.374-.122-.57-.122a.668.668 0 00-.687.677v.961c0 .333-.004.666 0 .999a.62.62 0 00.182.454c.192.193.415.248.675.24.367-.01.697-.328.697-.69.004-.655.008-1.306-.004-1.96a.643.643 0 00-.293-.559zm9.509.315c-.082-.23-.364-.437-.664-.444-.531-.019-.876.292-.835.843.018.259.004.518.004.776v.925c0 .055 0 .11.014.163.12.38.479.573.887.517.408-.059.646-.31.653-.728.011-.584.004-1.172.004-1.757a.86.86 0 00-.063-.295zM15.372 11.979a.681.681 0 00-.571-.507 1.009 1.009 0 00-.149-.015c-.022 0-.055.008-.063-.03h-1.068c-.015.026-.041.012-.06.012-.493 0-.986-.004-1.48.003a.948.948 0 00-.508.13.646.646 0 00-.286.395c-.007.034 0 .07-.022.097v2.791c.037.008.026.041.03.063.026.152.067.292.17.407a.686.686 0 00.516.218c.902.004 1.807.004 2.708 0 .115 0 .227-.01.338-.048a.643.643 0 00.471-.636V12.2a.756.756 0 00-.026-.221zm16.082-.285a.681.681 0 00-.571-.507 1.009 1.009 0 00-.149-.015c-.022 0-.055.008-.063-.03h-1.068c-.015.027-.041.012-.06.012-.493 0-.986-.004-1.48.004a.948.948 0 00-.508.13.646.646 0 00-.286.395c-.007.033 0 .07-.022.096v2.792c.037.007.026.04.03.063.026.151.066.292.17.406a.686.686 0 00.516.218c.901.004 1.807.004 2.708 0 .115 0 .226-.01.338-.048a.643.643 0 00.47-.636v-2.658a.64.64 0 00-.025-.222zM15.35 27.464a.681.681 0 00-.572-.506 1.009 1.009 0 00-.148-.015c-.022 0-.056.008-.063-.03h-1.068c-.015.027-.041.012-.06.012-.493 0-.987-.004-1.48.004a.948.948 0 00-.508.129.646.646 0 00-.286.396c-.007.033 0 .07-.022.096v2.792c.037.007.026.04.03.062.026.152.066.293.17.407a.686.686 0 00.516.218c.901.004 1.807.004 2.708 0 .115 0 .226-.01.338-.048a.643.643 0 00.47-.636v-2.658a.756.756 0 00-.025-.222z"/></g></g></svg>