<svg width="16" height="16" xmlns="http://www.w3.org/2000/svg"><g fill="none" fill-rule="evenodd"><path fill="#FF6000" d="M0 0h16v16H0z"/><path d="M9.846 8v4.308h.616V8h-.616zM4.308 2.462v1.846H2.462V2.462h1.846zm5.538 0v.615h.616v.615H8.615v-.615H8v-.615h1.846zm3.692 0v1.23h-1.846v-.615h.616v-.615h1.23zM6.77 6.769h3.077v-1.23H6.77v1.23zm5.539 5.539h1.23v1.23h-1.846v-1.23h-.615v1.23H8V8H6.77v5.538H3.076v-.615h-.615l-.001-6.77H1.23v-.615h3.077l-.001 6.154h.616V4.308h7.385v1.23h-1.231v.616h.615v.615h1.846V8h-1.23v4.308z" fill="#FFF"/></g></svg>