<svg width="12" height="12" xmlns="http://www.w3.org/2000/svg"><path d="M2.843 5.685h2.842V2.843a2.842 2.842 0 10-2.842 2.842zm0-4.777a1.942 1.942 0 011.935 1.934v1.935H2.842a1.935 1.935 0 110-3.87zM12 2.842a2.842 2.842 0 00-5.685 0v2.843h2.842A2.842 2.842 0 0012 2.843zm-4.777 0a1.935 1.935 0 111.935 1.936H7.222V2.842zm1.935 3.473H6.316v2.843a2.842 2.842 0 102.842-2.843zm0 4.778a1.942 1.942 0 01-1.935-1.935V7.222h1.935a1.935 1.935 0 010 3.87zM0 9.157a2.843 2.843 0 105.685 0V6.315H2.842A2.842 2.842 0 000 9.157zm4.778 0a1.935 1.935 0 11-1.936-1.935h1.935v1.936z" fill="#999"/></svg>