<svg width="16" height="16" xmlns="http://www.w3.org/2000/svg"><defs><linearGradient x1="0%" y1="50%" x2="100%" y2="50%" id="a"><stop stop-color="#FFF9EF" offset="0%"/><stop stop-color="#E8BF85" offset="100%"/></linearGradient></defs><g fill="none" fill-rule="evenodd"><path fill="#ED0000" d="M0 0h16v16H0z"/><path d="M4.26 7.306l3.895 2.822 3.788-2.759-.029.071c-.367.928-2.277 5.989-2.277 5.989H6.592S4.546 8.044 4.261 7.306zM14.09 1c.318.531.95 1.533.952 2.036v.026l-.002.018-.022.194c-.08.509-.314.939-.592 1.216l-.126.112c-.264.21-.592.334-.908.427L8.157 8.694 3.224 5.22l-.017-.02c-.065-.053-.299-.125-.557-.201l-.158-.05c-.318-.105-.635-.25-.876-.49l-.102-.11a2.31 2.31 0 01-.512-1.3l.001-.131c.04-.515.465-1.378.766-1.88l.033.026c.105.146.035.857.177 1.161l.041.08c.182.322.564.638 1.313.713l4.846-.943 4.492.98.186-.022c.712-.108 1.053-.451 1.206-.777l.028-.086c.086-.377-.143-1.134-.002-1.17z" fill="url(#a)"/></g></svg>